LG_Walk_Normal09																		
version=1																		
nRows=64																		
nColumns=19																		
inDegrees=yes																		
endheader																		
time	ground_force2_vx	ground_force2_vy	ground_force2_vz	ground_force2_px	ground_force2_py	ground_force2_pz	ground_torque2_x	ground_torque2_y	ground_torque2_z	ground_force1_vx	ground_force1_vy	ground_force1_vz	ground_force1_px	ground_force1_py	ground_force1_pz	ground_torque1_x	ground_torque1_y	ground_torque1_z
5.43	1.845364	49.206429	22.495869	0.074653	0	-0.407234	1.00E-06	1.815003	0	0	0	0	-0.13	0	0.305	0	0	0
5.431	2.229568	59.524479	23.279055	0.095432	0	-0.405264	1.00E-06	1.339164	0	0	0	0	-0.13	0	0.305	0	0	0
5.432	4.040344	73.826363	24.218296	0.107886	0	-0.378899	2.00E-06	1.124324	0	0	0	0	-0.13	0	0.305	0	0	0
5.433	4.040344	87.59166	24.375282	0.11979	0	-0.372763	3.00E-06	0.776825	0	0	0	0	-0.13	0	0.305	0	0	0
5.434	3.034777	89.335114	25.001482	0.120468	0	-0.370831	2.00E-06	0.776825	1.00E-06	0	0	0	-0.13	0	0.305	0	0	0
5.435	2.169756	91.239075	25.001482	0.120468	0	-0.368604	2.00E-06	0.946321	1.00E-06	0	0	0	-0.13	0	0.305	0	0	0
5.436	2.169756	92.047157	24.374838	0.116148	0	-0.368604	1.00E-06	0.971579	0	0	0	0	-0.13	0	0.305	0	0	0
5.437	2.792563	92.240784	23.43483	0.113852	0	-0.372572	1.00E-06	1.019823	0	0	0	0	-0.13	0	0.305	0	0	0
5.438	3.64243	93.556496	21.789648	0.110364	0	-0.379166	1.00E-06	1.03799	0	0	0	0	-0.13	0	0.305	0	0	0
5.439	3.64243	93.70459	21.00618	0.109714	0	-0.385101	1.00E-06	1.089414	0.00E+00	0	0	0	-0.13	0	0.305	0	0	0
5.44	3.318038	94.699783	18.812243	0.109546	0	-0.38566	2.00E-06	1.235195	1.00E-06	0	0	0	-0.13	0	0.305	0	0	0
5.441	3.318038	94.699783	16.226528	0.103994	0	-0.390744	1.00E-06	1.235195	1.00E-06	0	0	0	-0.13	0	0.305	0	0	0
5.442	3.548704	94.699783	13.95414	0.103994	0	-0.390744	2.00E-06	1.34228	1.00E-06	0	0	0	-0.13	0	0.305	0	0	0
5.443	4.330823	97.309601	11.289816	0.106177	0	-0.384744	2.00E-06	1.262876	1.00E-06	0	0	0	-0.13	0	0.305	0	0	0
5.444	4.327935	98.15976	9.330708	0.106866	0	-0.383883	2.00E-06	1.312377	1.00E-06	0	0	0	-0.13	0	0.305	0	0	0
5.445	4.327935	99.723068	6.039457	0.107761	0	-0.383883	1.00E-06	1.312377	0	0	0	0	-0.13	0	0.305	0	0	0
5.446	3.857943	99.723068	4.080631	0.107761	0	-0.384765	1.00E-06	1.312377	0	0	0	0	-0.13	0	0.305	0	0	0
5.447	3.857943	99.723068	0.632759	0.107761	0	-0.386668	5.00E-06	1.111862	0.00E+00	0	0	0	-0.13	0	0.305	0	0	0
5.448	3.857943	97.497452	-1.56114	0.106964	0	-0.386668	5.00E-06	1.111862	0	0	0	0	-0.13	0	0.305	0	0	0
5.449	4.159245	97.6819	-2.814791	0.10495	0	-0.384504	3.00E-06	1.120014	0	0	0	0	-0.13	0	0.305	0	0	0
5.45	3.997047	95.774864	-4.930721	0.102182	0	-0.384504	3.00E-06	1.272856	0	0	0	0	-0.13	0	0.305	0	0	0
5.451	4.159245	95.774864	-7.829674	0.10234	0	-0.385984	3.00E-06	1.272856	0	0	0	0	-0.13	0	0.305	0	0	0
5.452	4.150585	95.774864	-9.710089	0.102134	0	-0.385984	3.00E-06	1.272856	0.00E+00	0	0	0	-0.13	0	0.305	0	0	0
5.453	4.622742	96.105812	-11.434286	0.102134	0	-0.386312	2.00E-06	1.053753	1.00E-06	0	0	0	-0.13	0	0.305	0	0	0
5.454	4.77195	96.105812	-13.549492	0.10021	0	-0.386332	2.00E-06	0.95328	1.00E-06	0	0	0	-0.13	0	0.305	0	0	0
5.455	4.846191	96.105812	-15.116627	0.10021	0	-0.386332	2.00E-06	0.95328	1.00E-06	0	0	0	-0.13	0	0.305	0	0	0
5.456	4.846191	100.07341	-16.370682	0.101787	0	-0.381854	2.00E-06	0.978429	1.00E-06	0	0	0	-0.13	0	0.305	0	0	0
5.457	5.236891	101.438461	-18.250893	0.103156	0	-0.381854	2.00E-06	0.978429	0.00E+00	0	0	0	-0.13	0	0.305	0	0	0
5.458	5.62903	102.130859	-18.251175	0.103156	0	-0.382971	2.00E-06	0.969497	0	0	0	0	-0.13	0	0.305	0	0	0
5.459	5.62903	105.906693	-18.878021	0.103462	0	-0.385697	2.00E-06	0.89454	0	0	0	0	-0.13	0	0.305	0	0	0
5.46	4.769062	107.962204	-19.975212	0.102502	0	-0.384584	2.00E-06	0.969497	0	0	0	0	-0.13	0	0.305	0	0	0
5.461	4.769062	109.325745	-20.444994	0.101008	0	-0.384584	2.00E-06	0.89454	0	0	0	0	-0.13	0	0.305	0	0	0
5.462	5.004059	110.866737	-20.993629	0.100997	0	-0.384584	4.00E-06	0.809487	0	0	0	0	-0.13	0	0.305	0	0	0
5.463	5.236168	116.001068	-21.542225	0.099378	0	-0.383919	4.00E-06	0.809487	0.00E+00	0	0	0	-0.13	0	0.305	0	0	0
5.464	5.004059	117.721039	-22.639294	0.100847	0	-0.383919	4.00E-06	0.845225	0	0	0	0	-0.13	0	0.305	0	0	0
5.465	4.765455	124.23938	-23.187771	0.099378	0	-0.382989	2.00E-06	0.845225	0	0	0	0	-0.13	0	0.305	0	0	0
5.466	4.765455	129.376831	-23.422962	0.098593	0	-0.382914	3.00E-06	0.879184	0.00E+00	0	0	0	-0.13	0	0.305	0	0	0
5.467	5.390429	135.54921	-23.814735	0.098593	0	-0.380735	3.00E-06	0.766067	0	0	0	0	-0.13	0	0.305	0	0	0
5.468	5.938992	143.949112	-24.206429	0.098104	0	-0.379114	3.00E-06	0.766067	0	0	0	0	-0.13	0	0.305	0	0	0
5.469	6.332577	147.20578	-24.206429	0.098667	0	-0.378702	2.00E-06	0.766067	0.00E+00	0	0	0	-0.13	0	0.305	0	0	0
5.47	6.563965	156.654877	-24.441742	0.097506	0	-0.379114	2.00E-06	0.665539	0	0	0	0	-0.13	0	0.305	0	0	0
5.471	6.803289	160.572632	-24.128138	0.098667	0	-0.37569	2.00E-06	0.769199	0	0	0	0	-0.13	0	0.305	0	0	0
5.472	7.269674	170.022888	-23.971598	0.098415	0	-0.37647	3.00E-06	0.769199	0.00E+00	0	0	0	-0.13	0	0.305	0	0	0
5.473	7.658928	177.373627	-23.736607	0.098415	0	-0.37569	4.00E-06	0.769199	1.00E-06	0	0	0	-0.13	0	0.305	0	0	0
5.474	9.540341	186.979324	-23.736607	0.098415	0	-0.375455	4.00E-06	0.50396	2.00E-06	0	0	0	-0.13	0	0.305	0	0	0
5.475	10.630976	197.614868	-24.990095	0.099132	0	-0.375073	4.00E-06	0.502763	2.00E-06	0	0	0	-0.13	0	0.305	0	0	0
5.476	10.864529	205.842773	-25.146837	0.09943	0	-0.373754	4.00E-06	0.472004	0	0	0	0	-0.13	0	0.305	0	0	0
5.477	12.038788	216.48761	-25.146837	0.099568	0	-0.373754	4.00E-06	0.502763	0	0	0	0	-0.13	0	0.305	0	0	0
5.478	12.346583	222.809586	-25.068748	0.099568	0	-0.371343	4.00E-06	0.671482	0	0	0	0	-0.13	0	0.305	0	0	0
5.479	12.893704	231.564789	-25.068748	0.099568	0	-0.371343	2.00E-06	0.701322	0	0	0	0	-0.13	0	0.305	0	0	0
5.48	12.970113	240.318375	-25.617222	0.099478	0	-0.371343	2.00E-06	0.701322	1.00E-06	0	0	0	-0.13	0	0.305	0	0	0
5.481	12.972278	246.986786	-25.930666	0.099643	0	-0.371312	4.00E-06	0.720278	1.00E-06	0	0	0	-0.13	0	0.305	0	0	0
5.482	13.985062	254.202881	-26.322601	0.099133	0	-0.37053	5.00E-06	0.617379	2.00E-06	0	0	0	-0.13	0	0.305	0	0	0
5.483	13.985784	262.257233	-27.967983	0.099322	0	-0.370412	4.00E-06	0.639768	1.00E-06	0	0	0	-0.13	0	0.305	0	0	0
5.484	14.531462	265.343018	-28.437967	0.099133	0	-0.369624	4.00E-06	0.639768	1.00E-06	0	0	0	-0.13	0	0.305	0	0	0
5.485	14.531462	271.690491	-28.751772	0.099036	0	-0.369624	4.00E-06	0.661119	1.00E-06	0	0	0	-0.13	0	0.305	0	0	0
5.486	14.370709	275.624115	-29.84856	0.099036	0	-0.369624	5.00E-06	0.673696	1.00E-06	0	0	0	-0.13	0	0.305	0	0	0
5.487	14.138599	281.128387	-30.55414	0.097924	0	-0.368654	5.00E-06	0.761574	1.00E-06	0	0	0	-0.13	0	0.305	0	0	0
5.488	13.90216	286.620728	-31.807911	0.097924	0	-0.367763	5.00E-06	0.761574	2.00E-06	0	0	0	-0.13	0	0.305	0	0	0
5.489	13.352874	288.666626	-32.826408	0.097924	0	-0.367673	6.00E-06	0.771171	2.00E-06	0	0	0	-0.13	0	0.305	0	0	0
5.49	12.572921	297.083099	-33.531666	0.098179	0	-0.367673	6.00E-06	0.771171	2.00E-06	0	0	0	-0.13	0	0.305	0	0	0
5.491	12.488576	297.274811	-34.942177	0.098801	0	-0.366503	2.00E-06	0.855444	2.00E-06	0	0	0	-0.13	0	0.305	0	0	0
5.492	12.177173	301.897705	-36.117538	0.098604	0	-0.367057	1.00E-06	0.930127	1.00E-06	0	0	0	-0.13	0	0.305	0	0	0
5.493	11.079321	305.673553	-36.744545	0.098604	0	-0.36644	2.00E-06	0.956651	4.00E-06	0	0	0	-0.13	0	0.305	0	0	0
